<svg id="Layer_1" data-name="Layer 1" xmlns="http://www.w3.org/2000/svg" viewBox="0 0 92.11 74.56"><defs><style>.cls-1{fill:#d1cee7;}.cls-2{fill:#719889;}.cls-3{fill:#fff;}</style></defs><path class="cls-1" d="M27.62,47.37c-2.62-2.49-5.38-4.83-7.81-7.49-4.56-5-8.3-10.53-9.93-17.2-1.12-4.52,1.18-7.13,5.86-6.82,4.93.34,9.35,2.33,13.63,4.61,2.15,1.15,4.19,2.51,6.54,3.93-.28-.61-.46-1-.64-1.42-2.21-4.79-4.53-9.53-5.21-14.86a11.39,11.39,0,0,1-.12-1.31C29.78,1.6,33.06-1,38.08.36A23.38,23.38,0,0,1,47.5,5.85C56,13.49,63.09,22.18,67,33.09c2.24,6.26,3.52,12.76,2.68,19.43C68.3,63.31,61.12,71,50.51,73.43c-10,2.25-19.63.61-29-3.09C15,67.75,8.9,64.32,4.19,58.93A23,23,0,0,1,.85,54c-2.14-4.45-.13-8.73,4.72-9.54a27.1,27.1,0,0,1,8.71.17c4.37.73,8.65,2,13,3Zm19,5.45c-.12,2.23.4,3.34,1.81,3.94a4.61,4.61,0,0,0,5-1.23,6.14,6.14,0,0,0,1.16-2,19.53,19.53,0,0,0,.8-3.7c.35-3.25-1.4-4.65-4.54-3.69a5.83,5.83,0,0,0-1.65.88C47.16,48.44,46.72,50.57,46.6,52.82Z"/><path class="cls-2" d="M79.07,64.39l10.19,4.92c.48.24,1,.43,1.44.71a2.5,2.5,0,0,1,1.23,3.11,2.39,2.39,0,0,1-3.2,1.24c-2.43-.91-4.8-1.93-7.2-2.91A10.24,10.24,0,0,1,80.45,71c-2.61-1.39-5-2.05-7.62.37a6.32,6.32,0,0,1-5.43,1.19,3.09,3.09,0,0,1-2.6-4.2,7.63,7.63,0,0,1,1.46-2.67,22,22,0,0,0,4.85-8.27,4.72,4.72,0,0,1,3.94-3.26,3.56,3.56,0,0,1,3.9,2.2,10.3,10.3,0,0,1,.47,6.73C79.32,63.52,79.2,63.94,79.07,64.39Z"/><path class="cls-3" d="M46.6,52.82c.12-2.25.56-4.38,2.54-5.81a5.83,5.83,0,0,1,1.65-.88c3.14-1,4.89.44,4.54,3.69a19.53,19.53,0,0,1-.8,3.7,6.14,6.14,0,0,1-1.16,2,4.61,4.61,0,0,1-5,1.23C47,56.16,46.48,55.05,46.6,52.82Z"/></svg>