<svg id="Layer_1" data-name="Layer 1" xmlns="http://www.w3.org/2000/svg" viewBox="0 0 134.71 21.65"><defs><style>.cls-1{fill:#acc9bc;}</style></defs><path class="cls-1" d="M89.84,8.74a24,24,0,0,0-3.41,1.69c-1.72,1.2-3.3,2.6-4.94,3.91-4.33,3.48-9.1,5.49-14.79,4.44a28.17,28.17,0,0,1-9.29-3.84c-2-1.21-4-2.43-6-3.7-3.14-2-6.27-1.81-9.41,0-3.61,2-7.17,4.17-10.84,6.11-9.5,5-18.31,3-26.68-2.84A23.3,23.3,0,0,1,1.71,12.1c-2-1.94-2.27-4.51-.6-6.4s4.27-1.9,6.56-.1a42.25,42.25,0,0,0,5.52,3.8c5.08,2.78,10.15,2.36,15.09-.46C30.86,7.46,33.35,5.78,36,4.45a40.94,40.94,0,0,1,7.81-3.19c4.42-1.17,8.5.23,12.3,2.5C58.43,5.14,60.69,6.59,63,8a28.66,28.66,0,0,0,3.17,1.5,8,8,0,0,0,8.44-1C76.84,6.74,79,4.91,81.21,3.28c4.3-3.11,9-4.5,14-2a34.76,34.76,0,0,1,6.25,4.55c1.91,1.59,3.56,3.49,5.47,5.09,2.83,2.35,3.74,2.22,6.67.07a45.76,45.76,0,0,1,7.55-5c4-1.85,7.94-1,11.46,1.57A4.42,4.42,0,0,1,134,13.67a4.3,4.3,0,0,1-6.17,1.25,4.27,4.27,0,0,0-5.5.39c-1.42,1.13-2.81,2.28-4.27,3.36-5.24,3.87-10,4-15.24.19-2.32-1.69-4.32-3.8-6.49-5.69C95,12,93.56,10.74,92.09,9.62A9.86,9.86,0,0,0,89.84,8.74Z"/></svg>