<svg id="Layer_1" data-name="Layer 1" xmlns="http://www.w3.org/2000/svg" viewBox="0 0 104.24 90.66"><defs><style>.cls-1{fill:#709889;}</style></defs><path class="cls-1" d="M28.75,59.18c-1.75-.36-3.22-.62-4.67-1C17.25,56.53,10.93,53.81,5.69,49A16.91,16.91,0,0,1,.27,40.3C-.72,35.94,1,32,5.2,30.35a26.08,26.08,0,0,1,8-1.73c4.08-.24,8.19.06,12.29.14.83,0,1.65.09,2.48.13l.4-.48a4.31,4.31,0,0,1-1-.48C21.93,23.15,17,18,14.24,11.22a25,25,0,0,1-1.59-5.76c-.45-3,1.16-5.15,4.17-5.41a16.26,16.26,0,0,1,5.76.61C31,3.1,38.49,7.33,45.8,12A83.27,83.27,0,0,1,65.87,30.48C75,41.82,74.64,55.06,64.56,66.17A80.78,80.78,0,0,1,29,89.1a33.15,33.15,0,0,1-13,1.43C9.34,90,6.12,85.82,7.2,79.25c1-5.77,4.33-9.92,8.94-13,3.51-2.36,7.35-4.22,11.05-6.29C27.6,59.68,28.05,59.51,28.75,59.18Zm18-14.34c.23,3.25,1.14,6.06,4,7.81,2.36,1.44,4,.82,4.82-1.79,1.12-3.46-.64-9.39-3.45-11.67-1.42-1.15-2.49-1-3.83.28C46.7,41,47.17,43.08,46.77,44.84Z"/><path d="M96.91,53.53c-3.32,0-6.64,0-10,0a2.64,2.64,0,0,0-2.41,1.2A13.46,13.46,0,0,1,81,58.09c-2.4,1.47-4.58.17-5.22-2.55a24.93,24.93,0,0,1-.18-5.78,30.65,30.65,0,0,0-.9-5.89c-.33-1.6-.93-3.29.74-4.41s3.22-.19,4.56.84A15.35,15.35,0,0,1,85.84,48a1.5,1.5,0,0,0,1.12.76c4.59.18,9.18.28,13.77.4.34,0,.68,0,1,0a2.44,2.44,0,0,1,2.49,2.37c0,1.37-1,2.28-2.65,2.33s-3.12,0-4.68,0Z"/></svg>