<svg id="Layer_1" data-name="Layer 1" xmlns="http://www.w3.org/2000/svg" viewBox="0 0 139.56 26.08"><defs><style>.cls-1{fill:#e17d26;}</style></defs><path class="cls-1" d="M116.53,26.08a20.61,20.61,0,0,1-12.86-4.63c-2.47-2-4.75-4.21-7.22-6.21-5.12-4.15-8.34-4.37-14-1-2.92,1.77-5.75,3.7-8.65,5.51C65.63,24.85,57.66,24.37,50,18.71a81.67,81.67,0,0,1-8-6.83c-2.92-2.82-6.13-3.71-9.91-2.31-2.65,1-5.3,2-7.86,3.19-8.53,4-16.16,1.76-21.95-3.56A8.63,8.63,0,0,1,.18,5.62,4.07,4.07,0,0,1,2.35.82,4.21,4.21,0,0,1,7.66,1.9,10.3,10.3,0,0,0,20.29,4.84,83.08,83.08,0,0,1,31.08.75c6.08-1.83,11.44-.23,16.13,4,2.57,2.32,5.15,4.66,7.92,6.74,5.11,3.82,9,3.9,14.46.53,2.82-1.75,5.54-3.67,8.4-5.35C87.31,1.19,94.83,2,102.93,9.11c2,1.74,3.92,3.54,6,5.21a11.77,11.77,0,0,0,11.27,2.32c4.31-1.24,8.66-2.36,13-3.45a5,5,0,0,1,5.27,1.28c2,2.2,1.27,6-1.59,6.79-6.38,1.79-12.86,3.2-19.3,4.76A5.71,5.71,0,0,1,116.53,26.08Z"/></svg>