<svg id="Layer_1" data-name="Layer 1" xmlns="http://www.w3.org/2000/svg" viewBox="0 0 155.59 116.17"><defs><style>.cls-1{fill:#e17d26;}</style></defs><path class="cls-1" d="M0,32.06c.24-5.61.41-11.23.74-16.83A11.55,11.55,0,0,1,3.53,8.12,2,2,0,0,0,4,7.53C6.14,1.57,11.18,0,16.64,0A37.79,37.79,0,0,1,46.75,13.89c3.83,4.52,6.42,9.79,9.2,15,3,5.58,6.13,11.12,9.29,16.62A18.31,18.31,0,0,0,68,48.84a8.63,8.63,0,0,0,7,2.82,33,33,0,0,1,6.29.12c4.79.68,8.19,3.68,11.12,7.29,1.33,1.62,2.59,3.31,4,4.89a4.19,4.19,0,0,0,5.27,1.1,47.75,47.75,0,0,1,7.77-2.56c4.23-1,8.38,0,12.34,1.5q11.24,4.27,22.35,8.8c6.61,2.69,10.64,7.64,11.39,14.76A18,18,0,0,1,149,103.78c-6.39,5.41-13.91,8.82-21.84,11.33-.1,0-.21.11-.28.08-2.08-.78-3.84.76-5.83.75s-4,.24-6,.23c-17.65-.07-35.3-.07-52.95-.33a141,141,0,0,1-24.91-2.51c-10-1.94-17.51-7.29-23.06-15.72-5-7.6-7.74-16-9.86-24.78A148.06,148.06,0,0,1,.72,44.23Q.47,38.16.23,32.07Z"/></svg>