<?xml version="1.0" encoding="UTF-8"?><svg xmlns="http://www.w3.org/2000/svg" viewBox="0 0 79.05 77.69"><defs><style>.d{fill:#284654;}</style></defs><g id="a"/><g id="b"><g id="c"><path class="d" d="M66.8,.13c-3.33-.37-7.21-.09-9.24,2.58-1.91,2.5-1.37,6.01-.77,9.1,1.23,6.25,2.4,12.59,2.12,18.95-.28,6.37-2.14,12.85-6.33,17.65-4.19,4.8-10.97,7.6-17.13,5.99-4.26-1.11-7.85-4.17-10.16-7.92-2.31-3.75-3.42-8.13-3.81-12.52-.26-2.9-.32-6.09-2.27-8.25-2.16-2.41-5.79-2.62-9.03-2.65-2.9-.03-6.17,.09-8.12,2.24-1.52,1.68-1.76,4.12-1.88,6.38-.33,6.32-.26,12.71,1.15,18.88,1.41,6.17,4.22,12.13,8.77,16.53,5.09,4.93,11.97,7.59,18.89,9.13,6.41,1.43,13.08,1.99,19.56,.9,6.47-1.1,12.75-3.94,17.34-8.64,5.54-5.67,8.23-13.51,10-21.23,2.62-11.36,3.63-23.1,2.99-34.74-.15-2.74,.53-9.34-1.74-11.28-1.97-1.69-7.83-.83-10.33-1.1Z"/></g></g></svg>