<?xml version="1.0" encoding="UTF-8"?><svg xmlns="http://www.w3.org/2000/svg" viewBox="0 0 187.66 175.17"><defs><style>.d{fill:#bacd77;}</style></defs><g id="a"/><g id="b"><g id="c"><path class="d" d="M45.62,83.72c1.33-2.66,.78-4.7-.08-6.55-1.22-2.62-2.58-5.21-4.19-7.61-2.43-3.61-5.11-7.06-7.71-10.55-3.39-4.56-5.41-9.71-6.41-15.26-2.25-12.52,6.18-24.74,18.76-27.28,7.99-1.62,14.96,.44,20.58,6.24,2.57,2.66,4.89,5.76,6.59,9.03,2.88,5.57,5.17,11.45,7.73,17.19,1.07,2.38,1.63,5.09,4.53,7.09,.43-2.27,.85-4.19,1.14-6.13,.78-5.14,1.14-10.37,2.32-15.42,3.82-16.33,13.38-27.82,29.7-32.68,12.07-3.6,23.53-1.93,33.51,6.3,8.28,6.82,10.96,16.92,6.84,26.82-1.51,3.63-3.71,7.08-6.12,10.21-6.64,8.63-15,15.38-24.03,21.39-3.32,2.2-6.46,4.68-9.59,7.15-1.6,1.26-2.84,2.89-3.96,5.5,2.34-.51,4.1-.71,5.73-1.29,4.67-1.67,9.3-3.43,13.91-5.26,8.11-3.22,16.3-6.13,25.02-7.22,8.07-1.01,15.42,.61,21.67,6.06,5.5,4.8,7.48,12.07,5.11,18.41-1.52,4.07-4.46,6.85-8.17,8.9-5.02,2.78-10.46,4.43-16.05,5.56-10.36,2.09-20.88,2.64-31.41,2.89-4.72,.11-9.44,.07-14.16,.23-1.8,.06-3.66,.25-5.37,.78-2.8,.87-3.44,3.29-1.28,5.27,1.47,1.35,3.35,2.39,5.22,3.15,2.91,1.18,6.01,1.86,8.93,3.02,4.6,1.83,9.28,3.56,13.63,5.9,8.55,4.6,14.65,11.4,17.09,21.06,2.51,9.92-1.47,19.52-10.39,24.48-8.01,4.46-16.52,5.14-25.3,2.6-10.67-3.09-19.39-9.19-26.61-17.52-3.17-3.66-6-7.61-9.28-11.17-3.26-3.55-6.79-6.86-10.39-10.07-1.31-1.17-3.09-1.89-4.77-2.53-2.77-1.06-5.4-.73-7.88,1.1-4.82,3.56-8.91,7.79-12.32,12.72-3.57,5.18-7.2,10.32-10.9,15.42-2.15,2.96-4.76,5.49-8.08,7.17-6.6,3.33-12.48,.35-13.78-6.94-.53-2.96-.2-5.87,1.15-8.5,1.98-3.86,4.15-7.64,6.44-11.33,1.91-3.08,4.17-5.94,6.11-9,.59-.94,.85-2.23,.87-3.37,.11-4.49-1.72-8.26-4.8-11.39-4.16-4.23-8.49-8.28-12.63-12.53-3.03-3.11-6.08-6.24-8.75-9.66C1.25,92.79-.1,88.91,0,84.59c.22-9.38,8.35-16.12,17.49-14.06,3.11,.7,6.08,2.3,8.94,3.8,4.38,2.3,8.56,5,12.95,7.29,1.87,.98,4.04,1.38,6.24,2.09Z"/></g></g></svg>