<?xml version="1.0" encoding="UTF-8"?><svg xmlns="http://www.w3.org/2000/svg" viewBox="0 0 106.94 96.75"><defs><style>.d{fill:#fed3f8;}</style></defs><g id="a"/><g id="b"><g id="c"><path class="d" d="M26.76,96.66c-7.97,.65-15.74-2.23-23.26-6.05-.32-.16-.66-.35-.9-.6C1.66,88.99-.05,87.9,0,86.93c.11-1.95,2.29-1.23,3.58-1.46,7.45-1.36,13.08-5.21,15.98-12.24,2.75-6.69,5.08-13.56,7.38-20.42,1.41-4.2,2.01-4.38,5.62-1.75,2.61,1.89,5.45,3.58,8.42,4.83,3.62,1.52,7.07,.37,9.48-2.58,1.88-2.3,3.5-4.97,4.59-7.73,1.69-4.26,2.79-8.75,4.21-13.12,.63-1.95,1.23-3.95,2.15-5.77,1.37-2.71,3.39-2.93,5.49-.85,4.67,4.63,10.77,5.43,15.97,1.45,2.82-2.16,5.45-4.93,7.24-7.97,2.74-4.66,4.77-9.74,6.9-14.73,.88-2.07,1.53-4.44,4.02-4.59,2.71-.16,4.01,2.27,4.67,4.39,.82,2.61,1.26,5.44,1.24,8.17-.03,6.93-1.26,13.71-3.51,20.29-9.76,28.61-28.92,48.43-56.49,60.35-6.2,2.68-12.76,3.68-20.18,3.45Z"/></g></g></svg>