<?xml version="1.0" encoding="UTF-8"?><svg xmlns="http://www.w3.org/2000/svg" viewBox="0 0 208.28 45.79"><g id="a"/><g id="b"><g id="c"><path d="M70.56,35.07c-8.36,4.08-17.01,4.2-25.7,1.26-2.26-.76-3.91-.62-6.03,.49-7.63,3.98-15.56,4.41-23.38,.61C7.41,33.53,3.27,26.31,.23,18.35c-.51-1.33-.23-2.76,1.3-3.35,1.55-.6,2.52,.31,3.13,1.66,.3,.66,.52,1.36,.83,2.01,1.91,4.07,4.11,7.96,7.4,11.11,6.28,6.01,16.87,7.07,23.82,2.25-.79-.9-1.6-1.77-2.34-2.69-4.42-5.42-7.25-11.45-6.74-18.63,.33-4.65,2.74-7.93,7.08-9.68,6.23-2.51,11.95-.41,14.97,5.61,3.79,7.53,2.7,14.76-1.65,21.7-.62,.98-1.27,1.95-2.11,3.24,7.13,2.28,13.78,2.8,20.74-.28-.99-1.39-1.73-2.34-2.37-3.36-2.96-4.71-4.85-9.74-4.54-15.41,.32-5.75,4.06-10.02,9.7-11.1,4.82-.92,9.1,1.54,11.46,6.86,3.35,7.55,1.53,14.4-3.18,20.76-.7,.94-1.52,1.8-2.29,2.69,5.96,5.07,23.26,5.06,28.54,.29-1.46-2.36-3.08-4.62-4.35-7.07-2.1-4.08-3-8.44-2.07-13.01,.89-4.37,4.71-7.79,9.05-8.25,4.41-.47,7.48,1.52,9.38,6.33,2.76,6.97,2.48,13.71-1.91,20.04-.45,.65-.82,1.37-1.36,2.27,7.31,3.3,14.39,4.54,21.74,1.49-1.36-3.91-2.86-7.47-3.8-11.17-1.09-4.29-1.12-8.68,1.14-12.72,1.94-3.48,4.79-5.94,8.95-5.84,4,.1,6.21,2.94,7.7,6.31,3.49,7.92,2.05,15.1-3.43,21.62-.82,.97-1.67,1.92-2.48,2.86,8.51,7.72,25.62,7.81,31.26,.37-1.25-1.13-2.54-2.23-3.75-3.4-2.64-2.56-4.68-5.54-5.96-9.01-1.31-3.55-1.5-7.09,.18-10.58,3.15-6.55,10.46-7.49,15.08-1.94,.62,.74,1.21,1.53,1.64,2.39,3.33,6.64,4.8,13.43,1.5,20.56-.13,.28-.05,.66-.07,.95,4.61,2.03,8.09,1.84,14.03-.67,3.63-1.54,6.5-3.71,7.19-7.93,.25-1.49,1.17-2.47,2.79-2.15,1.63,.33,1.94,1.7,1.83,3.1-.08,.95-.17,2.04-.67,2.79-1.39,2.08-2.63,4.56-4.59,5.91-6.74,4.64-14.11,6.95-22.24,3.78-1.43-.56-2.42-.46-3.62,.5-9.33,7.52-27.06,9.39-38.16-1.11-.25-.24-.61-.37-1.01-.6-10.06,4.16-19.8,3-29.27-2.1-13.04,6.4-25.63,6.48-38.14-.7ZM45.4,8.92c-1.33-2.62-3.23-4.06-6.3-3.87-4.37,.27-7.02,3.06-6.69,7.69,.47,6.56,3.45,11.88,8.64,16.28,6.03-6.06,7.57-13.74,4.35-20.1Zm31.96,4.09c-.21-1.17-.67-2.33-1.24-3.37-1.16-2.1-2.74-3.75-5.42-3.5-2.75,.27-5.37,2.47-5.78,5.22-.28,1.87-.27,3.88,.1,5.73,.86,4.33,2.75,8.2,6.3,11.67,4.74-4.5,7.19-9.45,6.06-15.75Zm66.74-.38c-.74-1.67-1.55-3.56-3.68-3.55-2.11,.01-3.53,1.51-4.37,3.35-.54,1.19-.99,2.52-1.05,3.81-.26,5.21,1.3,9.94,4.07,14.64,7.58-6.65,7.24-13.27,5.03-18.25Zm-33.09-1.8c-1.42-2.45-3.31-2.98-5.77-1.58-2.81,1.6-3.4,4.2-3.14,7.15,.4,4.38,2.54,8.67,6.29,12.56,4.91-4.97,5.91-12.42,2.61-18.13Zm68.32,16.2c.47-4.7-.7-9.07-3.32-13-.95-1.43-2.19-2.69-4.16-2.26-1.97,.43-3.22,1.9-3.5,3.72-.27,1.72-.2,3.64,.31,5.29,1.42,4.66,4.59,8.04,9.19,11.19,.63-2.05,1.34-3.47,1.49-4.95Z"/></g></g></svg>