<?xml version="1.0" encoding="UTF-8"?><svg xmlns="http://www.w3.org/2000/svg" viewBox="0 0 90.49 112.03"><defs><style>.d{fill:#bacd77;}</style></defs><g id="a"/><g id="b"><g id="c"><path class="d" d="M68.38,60.83c4.1-2.56,8.29-4.99,12.44-7.48,4.06-2.44,7.15-5.72,8.83-10.23,2.25-6.03-.07-9.87-6.52-10.81-3.35-.49-6.49,.24-9.58,1.38-4.59,1.69-8.64,4.32-12.53,7.22-.92,.69-1.88,1.33-3.2,1.62,.5-.75,1-1.5,1.51-2.25,2.48-3.58,5.09-7.08,7.41-10.76,3.72-5.93,5.51-12.32,4.01-19.38C69.37,3.59,64.02-.5,57.31,.05c-5.57,.46-10.17,2.8-13.77,7.15-5.52,6.68-9.02,14.27-10.63,22.76-.16,.83-.3,1.67-.49,2.49-.05,.22-.24,.4-.74,1.2-.61-1.73-1.01-3.11-1.57-4.43-1.36-3.22-2.63-6.49-4.26-9.57-.88-1.67-2.29-3.13-3.71-4.42-2.47-2.27-5.49-3.38-8.69-1.99-3.55,1.55-5.3,4.73-5.13,8.48,.11,2.46,.83,5.05,1.91,7.28,3.15,6.53,6.63,12.9,9.95,19.35,1.6,3.12,3.16,6.26,4.67,9.41,.35,.72,.46,1.56,.9,3.13-1.4-1.15-2.21-1.78-2.98-2.45-2.46-2.15-4.84-4.39-7.38-6.45-1.4-1.13-2.95-2.16-4.59-2.88C5.24,46.69,.1,50.07,0,56.13c-.06,3.62,1.19,6.89,2.85,10.01,2.74,5.19,6.6,9.5,10.58,13.76,3.71,3.96,7.11,8.22,10.59,12.4,.72,.87,1.18,1.96,1.29,3.42-1.11-.59-2.18-1.3-3.34-1.75-2.91-1.12-5.79-2.66-8.82-3.08-6.8-.93-10.93,4.55-8.21,10.85,1.07,2.47,2.93,4.75,4.87,6.66,1.31,1.29,2.74,2.47,4.19,3.61h55.94c1.4-.76,2.67-1.76,3.78-3.11,4.3-5.27,2.33-11.07-4.39-12.06-2.4-.36-5.07,.09-7.45,.76-3.45,.97-6.74,2.48-10.94,4.08,2.77-6.47,6.66-10.73,12.25-13.41,4.03-1.94,8.21-3.62,12.05-5.88,2.77-1.62,5.29-3.81,7.55-6.11,1.78-1.8,3.09-4.18,1.75-6.92-1.36-2.76-3.81-3.96-6.75-4.21-5.61-.46-10.41,1.82-14.91,4.79-2.62,1.73-5.04,3.76-7.56,5.64-.91,.68-1.86,1.31-2.79,1.97-.21-.19-.42-.38-.62-.57,.85-1.37,1.58-2.83,2.56-4.1,3.82-4.95,8.65-8.78,13.92-12.06Z"/></g></g></svg>