<?xml version="1.0" encoding="UTF-8"?><svg xmlns="http://www.w3.org/2000/svg" viewBox="0 0 181.92 25.97"><g id="a"/><g id="b"><g id="c"><path d="M47.4,16.69c-2.82,1.53-5.45,3.01-8.13,4.4-6.68,3.47-13.78,5.18-21.32,4.83-5.65-.26-10.65-2.31-14.65-6.3-1.39-1.39-2.49-3.31-3.1-5.18-.81-2.48,.83-5.19,3.01-5.89,2.44-.79,4.26,.33,5.69,3.09,.63,1.21,1.61,2.42,2.73,3.17,3.25,2.2,6.98,2.55,10.8,2.12,4.74-.53,9.23-1.86,13.43-4.14,2.34-1.27,4.7-2.5,6.98-3.87,3.65-2.18,7.01-2.09,10.32,.76,3.87,3.32,8.46,5.05,13.5,5.73,4.64,.63,8.9-.19,12.74-2.93,1.67-1.2,3.33-2.42,5.03-3.57,3.86-2.62,7.83-2.93,11.93-.53,1.56,.91,3.15,1.8,4.78,2.6,6.18,3.05,12.34,3.02,18.4-.34,2.01-1.11,3.95-2.35,5.93-3.5,4.38-2.53,8.87-2.81,12.93,.35,8,6.22,23.05,6.22,32.38-2.92,1.29-1.27,2.62-2.54,4.08-3.59,2.09-1.5,4.33-1.23,5.9,.46,1.55,1.67,1.54,3.91-.02,5.95-10.49,13.7-31.28,17.58-45.75,8.39-2.4-1.53-4.24-1.64-6.57-.05-3.7,2.52-7.61,4.71-12.05,5.74-7.45,1.73-14.38,.28-20.97-3.37-4.85-2.68-5-2.84-9.12,.5-11.45,9.3-26.13,6.29-35.31,.52-1.12-.71-2.19-1.49-3.57-2.43Z"/></g></g></svg>