<?xml version="1.0" encoding="UTF-8"?><svg xmlns="http://www.w3.org/2000/svg" viewBox="0 0 66.76 74.93"><defs><style>.d{fill:#b49180;}</style></defs><g id="a"/><g id="b"><g id="c"><path class="d" d="M30.7,1.6C20.12,3.56,9.71,9.07,4.29,18.37,.22,25.37-.67,33.88,.44,41.9c1.11,8.02,4.08,15.66,7.33,23.08,1.76,4.01,4.06,8.4,8.26,9.64,4.4,1.3,9.17-1.65,11.45-5.63,2.28-3.98,2.66-8.74,2.94-13.32s.56-9.33,2.7-13.39c2.3-4.39,6.5-7.46,10.87-9.81s9.03-4.13,13.19-6.82c4.16-2.68,7.9-6.49,9.11-11.29C70.9-3.97,40.54-.22,30.7,1.6Z"/></g></g></svg>