<?xml version="1.0" encoding="UTF-8"?><svg xmlns="http://www.w3.org/2000/svg" viewBox="0 0 61.33 57.89"><defs><style>.d{fill:#bacd77;}</style></defs><g id="a"/><g id="b"><g id="c"><path class="d" d="M61.33,27.8c-1.21,1.11-2,2.2-3.06,2.72-2.38,1.17-4.96,1.93-7.34,3.09-2.37,1.16-4.73,2.44-6.87,3.98-2.91,2.09-4.99,4.91-5.98,8.42-.89,3.14-1.6,6.33-2.63,9.42-.33,1-1.32,2.31-2.18,2.45-.84,.14-2.16-.82-2.8-1.66-.85-1.11-1.34-2.54-1.83-3.89-.54-1.47-.94-3-1.35-4.51-1.53-5.72-5.35-9.05-10.98-10.37-3.88-.91-7.8-1.62-11.71-2.42-.82-.17-1.83-.11-2.43-.57-.88-.68-1.82-1.63-2.09-2.64-.37-1.36,.82-2.11,2.03-2.57,3.39-1.27,6.74-2.65,10.16-3.81,3.02-1.02,5.23-2.87,6.88-5.56,2.66-4.34,3.67-9.16,4.29-14.11,.16-1.32,.15-2.7,.58-3.93,.27-.77,1.15-1.69,1.89-1.81,.76-.13,1.87,.42,2.46,1.03,.63,.65,.84,1.7,1.2,2.59,1.56,3.79,3.07,7.61,4.69,11.38,1.69,3.93,4.69,6.45,8.85,7.36,4.12,.9,8.31,1.54,12.46,2.32,1.18,.22,2.43,.37,3.5,.86,.76,.35,1.29,1.23,2.28,2.24Z"/></g></g></svg>