<?xml version="1.0" encoding="UTF-8"?><svg xmlns="http://www.w3.org/2000/svg" viewBox="0 0 53.41 87.52"><defs><style>.d{fill:#ecb462;}</style></defs><g id="a"/><g id="b"><g id="c"><path class="d" d="M.92,36.52C.35,39.08,.03,41.73,0,44.45c-.19,17.77,14.69,45.47,36.09,42.91,5.15-.62,10.16-4.34,10.99-9.46,1.68-10.32-9.22-10.49-16.09-12.38-9.52-2.62-16.58-12.53-16.56-22.24,.02-10.02,6.33-20.61,17-21.74,5.38-.57,10.44,3.07,15.81,2.63,9.07-.75,6.38-13.81,2.91-18.78-7.2-10.26-19.96-3.65-27.95,1.84C11.94,14.27,3.61,24.44,.92,36.52Z"/></g></g></svg>