<?xml version="1.0" encoding="UTF-8"?><svg xmlns="http://www.w3.org/2000/svg" viewBox="0 0 70.16 79.25"><defs><style>.d{fill:#fda482;}</style></defs><g id="a"/><g id="b"><g id="c"><path class="d" d="M33.84,25.38c.63-1.51,1.11-2.57,1.52-3.66,2-5.25,4.75-10.05,8.36-14.35,2.97-3.54,6.67-5.9,11.19-6.98,4.95-1.18,8.73,.3,11.59,4.58,2.89,4.3,3.79,9.23,3.64,14.2-.13,4.18-.7,8.48-1.88,12.48-4.83,16.41-12.95,31.22-22.87,45.07-1.9,2.66-2.84,3.17-5.84,1.81-2.92-1.32-5.72-3.15-8.14-5.26-7.32-6.38-13.77-13.63-19.27-21.63-3.08-4.47-5.91-9.16-8.34-14.01C.83,31.72-.94,25.4,.52,18.69c.51-2.32,1.35-4.67,2.54-6.73,2.85-4.93,6.73-6.41,12.32-5.01,3.97,.99,7.51,2.93,10.16,6.01,2.35,2.73,4.27,5.83,6.32,8.81,.67,.98,1.15,2.08,1.98,3.6Z"/></g></g></svg>