<?xml version="1.0" encoding="UTF-8"?><svg xmlns="http://www.w3.org/2000/svg" viewBox="0 0 129.52 106.82"><defs><style>.d{fill:#fe6a4c;}</style></defs><g id="a"/><g id="b"><g id="c"><path class="d" d="M83.3,91.11c-9.77,22.41-40.11,19.66-48.1-.81-2.05,1.03-4.06,2.13-6.15,3.05-4.39,1.92-8.95,3.06-13.77,2.19C6.82,94.02,.76,86.97,.11,77.52c-.89-12.87,3.88-23.16,14.66-30.47,5.1-3.45,4.71-2.35,2.96-8.31-.07-.23-.12-.47-.19-.7-3-10.9,1.5-18.4,12.62-20.56,8.58-1.67,16.86-.19,24.78,3.33,2.76,1.23,5.35,2.81,8.06,4.15,3.06,1.52,3.63,1.2,5.36-1.82,2.4-4.19,4.71-8.48,7.57-12.35,1.97-2.67,4.54-5.12,7.32-6.93,6.71-4.38,13.97-5.14,21.43-1.78,4.47,2.01,8.36,4.85,11.6,8.55,5.22,5.98,6.53,12.81,4.25,20.33-1.62,5.36-4.76,9.75-9.08,13.3-1.21,.99-2.43,1.95-4.08,3.27,1.61,.91,2.89,1.68,4.21,2.36,3.01,1.54,6.17,2.83,9.04,4.6,7.98,4.93,10.83,13.18,7.61,22.01-3.3,9.06-10,14.43-19.26,16.42-8.05,1.73-16.11,1.5-23.95-1.44-.45-.17-.91-.3-1.37-.43-.1-.03-.22,.03-.34,.06Zm-3.98-33.76c-.51-4.16-1.41-8.87-6.33-11.46-9.37-4.93-23.2-.24-27.63,9.35-2.86,6.2-1.25,13.04,4.16,17.22,3.1,2.39,6.6,3.95,10.48,4.66,6.37,1.17,11.41-1,15.16-6.14,2.78-3.81,4.1-8.15,4.16-13.63Z"/></g></g></svg>