<svg id="Layer_1" data-name="Layer 1" xmlns="http://www.w3.org/2000/svg" viewBox="0 0 128.98 177.99"><defs><style>.cls-1{fill:#d1cee7;}</style></defs><path class="cls-1" d="M77,92.39c7.52,0,15.06-.44,22.49,1.24,6,1.35,11.53,3.59,16.27,7.64,7.27,6.2,7.11,13.73-.47,19.57a23.69,23.69,0,0,1-13.47,4.78c-5.46.29-10.94.11-16.41.21-4.1.08-8.2.13-12.28.47a12.44,12.44,0,0,0-4.65,1.63c-1.85,1-2,2.42-.26,3.69a13.07,13.07,0,0,0,4.41,2.13c4.28,1.09,8.64.73,13,.21,8.33-1,16.64-1.69,24.87.73,5.44,1.61,10.35,4.05,14.22,8.33a15.09,15.09,0,0,1,2.64,17.28c-3.61,7.62-9.83,12.19-17.61,14.92a54.82,54.82,0,0,1-21.83,2.62,92.17,92.17,0,0,1-28.5-6.26C49.22,167.49,40.65,161.12,33,153.26c-11.35-11.69-18.73-25.62-23.76-40.95-3.58-10.92-6.65-22-8.11-33.4C0,70.11-.62,61.28.85,52.47A51.43,51.43,0,0,1,15.4,24.58,90.45,90.45,0,0,1,47.62,2.91,39.38,39.38,0,0,1,76,2.41c8.86,3.26,11.5,10.46,7.11,18.83A29.71,29.71,0,0,1,71.86,32.7c-2,1.24-4.12,2.45-6.22,3.58a3,3,0,0,0-1.92,2.84,30.75,30.75,0,0,0,.49,4.18,1.57,1.57,0,0,0,1,.93c2.48.67,5,1.61,7.48,1.79,5.79.42,11.63.3,17.43.7,7,.49,13.41,2.62,18.59,7.63S114.41,66,109.89,71.4a25.05,25.05,0,0,1-3.46,3.37c-4.83,3.87-10.56,5.36-16.57,6-7.16.78-14.24-.15-21.32-1.05-6.09-.76-12.19-1.15-18.2.45a21.55,21.55,0,0,0-5.11,2.12c-2.35,1.34-2.59,3.42-.45,5.08a15.1,15.1,0,0,0,5.51,2.88,77.91,77.91,0,0,0,12.39,2C67.45,92.66,72.25,92.39,77,92.39Z"/></svg>