<svg id="Layer_1" data-name="Layer 1" xmlns="http://www.w3.org/2000/svg" viewBox="0 0 191.97 124.85"><defs><style>.cls-1{fill:#f8ca94;}.cls-2{fill:#709889;}.cls-3{fill:#acc9bc;}.cls-4{fill:#fff;}</style></defs><path class="cls-1" d="M0,57.32C1.14,34.12,10.8,16,32,5.3,53.3-5.5,79.54.68,94.35,19.48a58.62,58.62,0,0,1,2,69.73C87.73,101.44,76.2,109.33,61.41,112a48.67,48.67,0,0,1-39.89-9.88C8.15,91.67,1.36,77.66.21,60.83.13,59.66.07,58.49,0,57.32Zm39.27-2.55c0,8.61,7.95,16.34,16.63,16.17A12.29,12.29,0,0,0,68.39,57.79c-.28-7.87-7-14.7-15.3-15.51A12.34,12.34,0,0,0,39.27,54.77Z"/><path class="cls-2" d="M104.33,4.92c.63.27,1.78.66,2.85,1.22,4.64,2.43,8.45,6,12.29,9.43a140.09,140.09,0,0,1,29,37.14c2.19,4,4.79,7.83,7.18,11.75a11.63,11.63,0,0,1,1.44,2.83,2.7,2.7,0,0,1-.33,2.27,3.3,3.3,0,0,1-2.59.76,27.31,27.31,0,0,1-5.27-2.13c-4.74-2.43-8.77-5.86-12.71-9.39C123,47,111.87,33.41,103.7,17.6a45.71,45.71,0,0,1-3.21-8.15C99.74,6.88,101.43,4.78,104.33,4.92Z"/><path class="cls-2" d="M98.17,124.85c-1.36-.16-3.32-.26-5.23-.64-3.22-.64-4.35-3.06-2.46-5.76a33,33,0,0,1,6-6.79,110.09,110.09,0,0,1,43.13-21.91A33.28,33.28,0,0,1,146.1,89a3.64,3.64,0,0,1,3.38,5.64c-9.36,16.5-23.87,25.58-42.13,29.27-1.29.26-2.6.45-3.91.58C101.89,124.64,100.32,124.7,98.17,124.85Z"/><path class="cls-3" d="M146.6,80.91c-9.42.12-18.73-1-28-2.28-2.71-.38-5.44-.62-8.14-1-1.9-.27-2.77-1.29-2.56-2.73s1.47-2.15,3.26-1.93c7.42.89,14.83,1.91,22.26,2.62a149.5,149.5,0,0,0,26.51,0,236.43,236.43,0,0,0,28.41-4.08,5.84,5.84,0,0,1,1-.14,2.4,2.4,0,0,1,2.63,2,2.28,2.28,0,0,1-2,2.61c-3.06.63-6.13,1.24-9.21,1.77A208.7,208.7,0,0,1,146.6,80.91Z"/><path class="cls-4" d="M39.27,54.77A12.34,12.34,0,0,1,53.09,42.28c8.29.81,15,7.64,15.3,15.51A12.29,12.29,0,0,1,55.9,70.94C47.22,71.11,39.27,63.38,39.27,54.77Zm9.81,2.64a3,3,0,0,0,3.32,2.8A2.43,2.43,0,0,0,55,57.82C55,56.4,53.19,55,51.46,55A2.37,2.37,0,0,0,49.08,57.41Zm11.55,2.76A2.45,2.45,0,0,0,58,62.64a2.78,2.78,0,0,0,2.58,2.84,2.49,2.49,0,0,0,2.56-2.62A2.43,2.43,0,0,0,60.63,60.17ZM57.21,49.5a2.29,2.29,0,0,0-2.31,2.31A3,3,0,0,0,58,54.5a2.26,2.26,0,0,0,2.32-2.29A3.18,3.18,0,0,0,57.21,49.5ZM51.32,62.21a3,3,0,0,0-2.81,2.85A2.33,2.33,0,0,0,51,67.33a2.71,2.71,0,0,0,2.68-2.73A2.29,2.29,0,0,0,51.32,62.21Zm-4.27-6.55A2.32,2.32,0,0,0,44.89,53a2.69,2.69,0,0,0-2.83,2.38,2.72,2.72,0,0,0,2.5,2.73A2.42,2.42,0,0,0,47.05,55.66Zm2.4-8.93a2.23,2.23,0,0,0-2.26,2.32,2.66,2.66,0,0,0,2.44,2.6A2.27,2.27,0,0,0,52,49.39,2.64,2.64,0,0,0,49.45,46.73Z"/><path d="M49.08,57.41A2.37,2.37,0,0,1,51.46,55C53.19,55,55,56.4,55,57.82a2.43,2.43,0,0,1-2.61,2.39A3,3,0,0,1,49.08,57.41Z"/><path d="M60.63,60.17a2.43,2.43,0,0,1,2.46,2.69,2.49,2.49,0,0,1-2.56,2.62A2.78,2.78,0,0,1,58,62.64,2.45,2.45,0,0,1,60.63,60.17Z"/><path d="M57.21,49.5a3.18,3.18,0,0,1,3.1,2.71A2.26,2.26,0,0,1,58,54.5a3,3,0,0,1-3.09-2.69A2.29,2.29,0,0,1,57.21,49.5Z"/><path d="M51.32,62.21a2.29,2.29,0,0,1,2.4,2.39A2.71,2.71,0,0,1,51,67.33a2.33,2.33,0,0,1-2.53-2.27A3,3,0,0,1,51.32,62.21Z"/><path d="M47.05,55.66a2.42,2.42,0,0,1-2.49,2.49,2.72,2.72,0,0,1-2.5-2.73A2.69,2.69,0,0,1,44.89,53,2.32,2.32,0,0,1,47.05,55.66Z"/><path d="M49.45,46.73A2.64,2.64,0,0,1,52,49.39a2.27,2.27,0,0,1-2.34,2.26,2.66,2.66,0,0,1-2.44-2.6A2.23,2.23,0,0,1,49.45,46.73Z"/></svg>