<?xml version="1.0" encoding="UTF-8"?><svg xmlns="http://www.w3.org/2000/svg" viewBox="0 0 181.05 26.33"><defs><style>.d{fill:#fed3f8;}</style></defs><g id="a"/><g id="b"><g id="c"><path class="d" d="M135.76,9.34c-14.84,11.59-27.66,11.82-45.65,1.16-1.96,1.36-4.03,2.81-6.11,4.23-4.84,3.33-10.06,5.79-15.93,6.62-7.32,1.04-14.17-.38-20.08-3.92-5.41,2.41-10.37,4.96-15.56,6.87-8.79,3.23-17.62,2.37-26.23-.93-1.85-.71-3.59-2.02-5-3.44-1.65-1.66-1.52-3.97-.18-5.62,1.45-1.79,3.68-2.17,5.86-.84,7.83,4.77,16.07,4.83,24.37,1.78,3.93-1.45,7.7-3.52,11.27-5.75,3.6-2.25,6.57-2.57,10.27,.07,5.36,3.83,11.62,4.17,17.69,1.96,3.69-1.34,7.4-3.22,10.43-5.69,5.85-4.77,11.27-5.62,17.7-1.02,2.84,2.03,6.58,3.01,10.05,3.9,5.24,1.34,10.35,.5,15.02-2.32,2.38-1.44,4.66-3.04,6.96-4.59,3.51-2.36,7.04-2.45,10.44,.1,10.19,7.63,21.09,8.13,32.56,3.45,.34-.14,.66-.31,1-.42,2.81-.9,5.15,0,6.07,2.36,.86,2.21,.05,4.71-2.49,5.68-4.15,1.58-8.41,3.25-12.77,3.85-10.28,1.42-19.99-.45-28.49-6.86-.28-.21-.64-.32-1.21-.6Z"/></g></g></svg>