<?xml version="1.0" encoding="UTF-8"?><svg xmlns="http://www.w3.org/2000/svg" viewBox="0 0 20.15 47.12"><defs><style>.d{fill:#fed3f8;}</style></defs><g id="a"/><g id="b"><g id="c"><path class="d" d="M20.15,28.69c-.38-7.09-1.51-13.98-3.79-20.65-.73-2.15-1.85-4.18-2.99-6.16C12.63,.58,11.36-.27,9.73,.08c-1.51,.32-2.05,1.53-2.36,2.9-.86,3.89-1.7,7.78-2.62,11.65-.83,3.52-1.83,6.99-2.62,10.52-.81,3.64-1.69,7.28-2.08,10.98-.39,3.74,1.39,6.78,4.32,9.1,3.22,2.54,6.7,2.53,9.96,0,2.6-2.03,4.06-4.81,4.7-7.94,.57-2.82,.77-5.72,1.13-8.58Z"/></g></g></svg>