<?xml version="1.0" encoding="UTF-8"?><svg xmlns="http://www.w3.org/2000/svg" viewBox="0 0 76.03 83.92"><defs><style>.d{fill:#efc196;}</style></defs><g id="a"/><g id="b"><g id="c"><g><path class="d" d="M7.66,59.55c3.01,1.75,6.56,1.96,9.96,1.92,3.7-.04,7.42-.11,11.1-.62,6.45-.89,13.06-3.23,16.94-8.78,2.59-3.71,3.24-8.38,2.34-12.76-3.13-15.19-21.24-20.4-34.74-19.56-2.07,.13-4.13,.39-6.17,.78-4.67,.89-9.87,5.77-5.35,10.31,2.33,2.34,5.39,2.25,8.44,2.01,4.47-.35,12.43-1.9,14.71,3.39,.25,.58,.39,1.2,.48,1.82,.99,7.39-8.86,6.61-13.36,6.37-2.97-.16-6.91,.44-8.77,3.11-2.48,3.55-.34,7.99,2.49,10.6,.61,.56,1.25,1.03,1.92,1.42Z"/><path class="d" d="M6.39,74.51c.53,3.27,2.11,6.16,4.93,8,3.5,2.28,8.14,1.2,12.01,.79,4.02-.43,8.03-.9,12.01-1.58,7.92-1.34,15.86-3.46,22.79-7.63,2.58-1.55,4.99-3.37,7.16-5.45,3.38-3.24,6.06-7.14,7.88-11.46,2.88-6.85,3.53-14.48,2.2-21.77-.75-4.13-2.09-8.16-3.97-11.91-3.5-6.97-8.95-13.06-16.02-16.52-5.16-2.52-10.85-3.62-16.51-4.34-5.66-.72-11.33-1.37-17-1.96-3.71-.38-7.66-1.16-11.36-.29-3.69,.87-5.97,4.42-5.71,8.13,.44,6.34,7.6,6.9,12.55,6.94,6.38,.05,12.77,.27,19.01,1.76,7.24,1.74,14,5.47,17.56,12.27,2.97,5.68,3.3,12.51,1.2,18.54-1.82,5.23-5.43,9.74-10.19,12.59-5.43,3.25-11.84,4.06-18.06,4.2-3.01,.07-6.03,.03-9.03-.06-3.08-.09-6.32-.47-9.27,.68-3.15,1.22-2.65,5.42-2.32,8.15,.04,.3,.08,.61,.13,.91Z"/></g></g></g></svg>