<?xml version="1.0" encoding="UTF-8"?><svg xmlns="http://www.w3.org/2000/svg" viewBox="0 0 39.51 91.8"><defs><style>.d{fill:#decfb8;}</style></defs><g id="a"/><g id="b"><g id="c"><path class="d" d="M7.53,86.18c6.36,7.54,18.71,7.22,25.62,.67,7.7-7.3,8.13-19.67,2.8-28.42-2.75-4.51-6.79-8.22-11.38-10.79-4.99-2.8-11.51-5.02-17.13-2.78-4.86,1.94-8.63,7.08-6.92,12.45,1.55,4.84,6.58,7.93,11.4,8.65,9.9,1.47,19.9-4.66,24.08-13.59,4.4-9.4,1.47-20.2-6.15-27-3.63-3.24-8.13-5.59-12.96-6.33s-10.21-.06-13.97,3.34c-4.22,3.82-3.58,9.8,0,13.79s9.08,5.54,14.19,5.25,10.12-2.35,13.8-5.94c3.78-3.69,5.82-8.89,6.01-14.13,.18-5.26-1.62-10.49-5.15-14.41S23.44,.77,18.37,.14c-2.45-.3-4.93-.12-7.33,.47-2.81,.69-1.62,5.03,1.2,4.34,7.66-1.89,16.51,2.34,19.2,9.91,2.83,7.93-.52,16.88-8.21,20.5-3.49,1.64-7.62,2.04-11.34,1.04-3.3-.89-7.76-3.67-7.46-7.64,.26-3.53,4.39-5.16,7.42-5.47,3.88-.4,7.84,.69,11.19,2.62,6.64,3.82,11.49,11.31,10.55,19.15s-7.27,14.26-14.61,16.13c-3.65,.93-7.65,.65-10.89-1.39-3.01-1.89-4.71-5.48-2.18-8.53,3.09-3.72,8.35-3.11,12.42-1.63s7.74,3.94,10.68,7.05c5.62,5.93,8.01,14.84,4.27,22.42-1.66,3.36-4.39,6.17-8,7.39-3.35,1.13-7.17,1.13-10.42-.35-1.63-.74-2.98-1.81-4.13-3.17-.78-.93-2.37-.81-3.18,0-.92,.92-.79,2.25,0,3.18h0Z"/></g></g></svg>