<?xml version="1.0" encoding="UTF-8"?><svg xmlns="http://www.w3.org/2000/svg" viewBox="0 0 96.57 50.83"><defs><style>.d{fill:#efc196;}</style></defs><g id="a"/><g id="b"><g id="c"><path class="d" d="M4.75,13.24c1.48-3.79,3.37-7.56,6.45-10.2S18.81-.91,22.54,.72c2.87,1.26,4.84,4.04,5.85,7.01s1.17,6.14,1.33,9.27c.24,4.85,.48,9.7,.73,14.55,.12,2.35,.73,5.31,3.04,5.76,1.58,.31,3.13-.92,3.75-2.41,.61-1.49,.52-3.16,.39-4.76-.33-4.18-.78-8.42-.06-12.55,.72-4.13,2.8-8.24,6.43-10.36,5.61-3.28,13.24-.62,17.37,4.41,4.13,5.02,5.49,11.74,6.16,18.21,.15,1.43,.28,2.91,.94,4.2,.66,1.28,1.98,2.35,3.41,2.23,2.02-.17,3.17-2.4,3.54-4.39,.57-3.02,.26-6.15,.83-9.17s2.39-6.14,5.38-6.84c2.19-.51,4.51,.44,6.2,1.92s2.85,3.46,3.99,5.39c1.72,2.92,3.46,5.9,4.3,9.19,.84,3.29,.66,6.99-1.26,9.79-2.65,3.87-7.74,5.06-12.37,5.8-15.69,2.51-31.64,3.37-47.5,2.58-8.18-.41-16.33-1.26-24.42-2.54C3.21,46.84,.01,46.54,0,38.61-.01,29.96,1.61,21.3,4.75,13.24Z"/></g></g></svg>