<?xml version="1.0" encoding="UTF-8"?><svg xmlns="http://www.w3.org/2000/svg" viewBox="0 0 40.28 121.99"><defs><style>.d{fill:#fdd26d;}</style></defs><g id="a"/><g id="b"><g id="c"><path class="d" d="M35.09,30.04c.16,3.47-1.31,6.21-3.09,8.86-1.28,1.9-2.5,3.85-3.62,5.84-1.15,2.06-.78,3.98,.96,5.58,1.16,1.06,2.43,2.01,3.54,3.12,1.53,1.53,3.2,3.01,4.4,4.78,4.61,6.8,3.9,13.24-1.98,18.94-1.73,1.68-3.7,3.12-5.42,4.82-3,2.96-3.23,4.67-1.06,8.33,2.21,3.73,2.77,7.6,2.02,11.85-1.02,5.81-3.31,11.11-6.1,16.23-1.48,2.72-3.88,4.09-6.96,3.43-4.49-.96-8.92-2.18-13.36-3.34-.8-.21-1.59-.62-2.29-1.08-2.15-1.41-2.75-3.03-1.45-5.25,1.59-2.7,3.54-5.18,5.37-7.73,.84-1.18,1.92-2.2,2.65-3.44,1.74-2.97,1.41-4.91-1.02-7.41-4.91-5.06-5.14-10.39-.59-15.85,1.7-2.04,3.69-3.85,5.38-5.9,3.21-3.89,3.15-5.89-.39-9.38-1.71-1.69-3.73-3.07-5.64-4.54-3.56-2.73-4.62-5.68-2.84-9.85,1.07-2.51,2.78-4.78,4.36-7.05,1.03-1.49,2.4-2.73,3.47-4.19,2.07-2.84,1.84-4.99-.86-7.28-1.37-1.17-2.91-2.17-4.47-3.09C1.49,23.7-.33,19.75,.64,14.48c.44-2.38,.78-4.78,1.15-7.17,.33-2.13,1.38-3.46,3.62-3.95C9.78,2.42,14.1,1.23,18.47,.27c3.29-.72,4.65-.14,4.57,3.19-.14,5.88,3.3,9.61,6.62,13.62,3.14,3.79,5.65,7.89,5.44,12.95Z"/></g></g></svg>