<?xml version="1.0" encoding="UTF-8"?><svg xmlns="http://www.w3.org/2000/svg" viewBox="0 0 168.78 87.22"><defs><style>.d{fill:#fdd26d;}</style></defs><g id="a"/><g id="b"><g id="c"><path class="d" d="M83.38,71.48c-4.97-3.05-9.4-6.74-13.61-10.8-3.11-3-6.52-5.88-10.25-8-12.1-6.87-24.65-12.84-37.87-17.32-4.23-1.43-8.48-2.89-12.53-4.76-2.35-1.09-4.65-2.71-6.39-4.62C-1.58,21.21-.69,15.2,4.71,11.71c2-1.3,4.28-2.25,6.53-3.08C24.3,3.83,38,2.1,51.71,.72c6.96-.7,14.03-.22,21.03-.58,12.31-.62,24.38,.79,36.37,3.44,12.79,2.83,25.35,6.16,36.74,13.01,4.93,2.96,9.7,5.93,12.83,10.93,.44,.7,1.12,1.27,1.72,1.85,3.4,3.27,5.78,7.19,6.93,11.73,3.26,12.8,.97,24.68-6.34,35.62-.67,1-1.51,1.89-2.32,2.78-2.94,3.22-6.54,5.46-10.81,6.25-3.91,.73-7.9,.99-11.85,1.46-19-.54-36.49-5.84-52.62-15.74ZM42.64,23.75c3.24,2.08,6.44,4.31,9.91,5.92,4.81,2.24,9.84,4.01,14.81,5.91,8.19,3.13,15.61,7.64,22.81,12.57,4.59,3.14,9.16,6.31,13.84,9.31,9.09,5.82,19.24,8.33,29.87,9.06,2.48,.17,5.1-.24,7.51-.92,8.69-2.44,11.73-11.92,6.01-18.99-1.79-2.21-4.17-4.04-6.55-5.64-11.81-7.97-24.77-12.98-38.94-14.81-13.9-1.8-27.77-3.87-41.69-5.51-5.5-.65-11.1-.47-16.66-.59-1.01-.02-2.03,.34-3.81,.68,1.31,1.39,1.96,2.41,2.9,3.01Z"/></g></g></svg>