<?xml version="1.0" encoding="UTF-8"?><svg xmlns="http://www.w3.org/2000/svg" viewBox="0 0 63.33 56.98"><defs><style>.d{fill:#284654;}</style></defs><g id="a"/><g id="b"><g id="c"><path class="d" d="M.11,38.63c-.65-4.61,1.74-9.51,5.77-11.84,3.77-2.18,8.78-2.31,11.71-5.55,2.61-2.89,2.61-7.19,2.92-11.08,.31-3.88,1.57-8.36,5.2-9.76,3.76-1.45,7.75,1.23,10.89,3.75,6.81,5.46,13.63,10.93,20.44,16.39,3.7,2.97,7.82,7.54,5.73,11.8-1.65,3.36-6.09,3.99-9.24,6.02-5.16,3.32-6.6,10.32-11.08,14.52-4.32,4.05-10.93,4.84-16.7,3.49C17.88,54.54,1.4,47.84,.11,38.63Z"/></g></g></svg>