<svg width="940" height="727" viewBox="0 0 940 727" fill="none" xmlns="http://www.w3.org/2000/svg">
<g id="undraw_camping_noc8 1">
<g id="woman-toasting">
<path id="Vector" d="M836.571 589.77L667.011 583.77L577.591 592.3L424.821 606.87L367.331 612.35L234.191 656.75C233.657 656.928 233.083 656.951 232.536 656.816C231.989 656.682 231.491 656.394 231.101 655.988C230.71 655.582 230.443 655.074 230.33 654.522C230.216 653.97 230.262 653.397 230.461 652.87L230.471 652.86L253.561 591.79L251.131 590L187.591 543.31L187.251 543.06L104.861 530.5C103.701 530.322 102.606 529.852 101.678 529.133C100.75 528.414 100.021 527.471 99.5586 526.393C99.0964 525.314 98.9165 524.135 99.0359 522.968C99.1553 521.8 99.5701 520.683 100.241 519.72L225.721 339.66L291.661 245.06L298.811 234.79L573.111 231L840.921 581.35C841.524 582.139 841.891 583.083 841.978 584.073C842.065 585.062 841.869 586.056 841.413 586.938C840.958 587.82 840.26 588.555 839.403 589.056C838.546 589.558 837.564 589.805 836.571 589.77Z" fill="#95C2DB"/>
<path id="Vector_2" opacity="0.2" d="M366.56 245.587L254.623 586.185L191.09 539.495L229.218 335.847L294.966 241.019L295.153 241.24L366.56 245.587Z" fill="black"/>
<path id="Vector_3" d="M266.642 376.065C253.941 406.598 249.444 432.102 234.379 427.496C213.753 421.191 235.409 398.89 248.11 368.356C260.812 337.822 269.786 314.4 280.374 316.924C300.113 321.629 279.343 345.531 266.642 376.065Z" fill="#3F3D56"/>
<path id="Vector_4" d="M295.419 314.947C295.416 312.926 295.015 310.926 294.238 309.06C293.462 307.194 292.326 305.5 290.895 304.073C289.463 302.647 287.765 301.516 285.897 300.745C284.029 299.975 282.027 299.58 280.007 299.584C279.66 299.584 279.316 299.6 278.975 299.624L264.454 297.832C262.788 297.238 261.031 296.937 259.262 296.941C258.774 296.942 258.291 296.968 257.815 297.013L257.255 296.944L257.24 297.081C253.832 297.538 250.676 299.124 248.274 301.584C245.873 304.045 244.365 307.239 243.991 310.657C243.616 314.075 244.398 317.52 246.21 320.442C248.022 323.364 250.761 325.595 253.989 326.779L253.958 327.056L255.387 327.216C256.668 327.551 257.987 327.719 259.312 327.716C259.459 327.716 259.604 327.709 259.75 327.705L274.594 329.367C276.339 330.027 278.19 330.363 280.056 330.359C280.752 330.357 281.446 330.308 282.136 330.212L283.401 330.354L283.409 329.983C286.822 329.215 289.871 327.307 292.054 324.573C294.237 321.84 295.424 318.445 295.419 314.947Z" fill="#1F3643" fill-opacity="0.5"/>
<path id="Vector_5" d="M89.9136 525.153L88.1362 524.22C133.661 437.451 262.421 252.059 263.716 250.196L265.364 251.342C264.07 253.204 135.38 438.494 89.9136 525.153Z" fill="#3F3D56"/>
<path id="Vector_6" d="M229.362 655.188L227.426 654.66C228.363 651.212 321.611 309.17 353.987 251.471L355.737 252.453C323.482 309.938 230.3 651.742 229.362 655.188Z" fill="#3F3D56"/>
<path id="Vector_7" d="M852.307 588.874C802.595 506.982 614.86 253.357 612.969 250.804L614.582 249.61C616.473 252.163 804.263 505.862 854.022 587.833L852.307 588.874Z" fill="#3F3D56"/>
<path id="Vector_8" d="M225.748 664.292C229.628 664.286 232.767 660.237 232.759 655.249C232.751 650.26 229.599 646.222 225.719 646.228C221.84 646.234 218.701 650.283 218.709 655.271C218.717 660.259 221.869 664.298 225.748 664.292Z" fill="#3F3D56"/>
<path id="Vector_9" d="M90.37 529.033C94.2497 529.027 97.3883 524.978 97.3803 519.99C97.3723 515.002 94.2207 510.963 90.3409 510.969C86.4612 510.975 83.3226 515.024 83.3306 520.012C83.3387 525.001 86.4903 529.039 90.37 529.033Z" fill="#3F3D56"/>
<path id="Vector_10" d="M854.169 593.381C858.049 593.375 861.187 589.326 861.179 584.338C861.171 579.35 858.02 575.311 854.14 575.318C850.26 575.324 847.121 579.373 847.129 584.361C847.137 589.349 850.289 593.388 854.169 593.381Z" fill="#3F3D56"/>
<path id="Vector_11" d="M255.915 260.158L634.536 264.215C634.273 233.292 621.801 203.726 599.836 181.959C577.871 160.191 548.194 147.985 517.27 148L372.774 148.233C312.335 148.33 261.159 195.594 256.267 255.835L255.915 260.158Z" fill="#1F3643"/>
<path id="Vector_12" opacity="0.2" d="M588.585 385.314H450.205C448.521 385.313 446.852 385.646 445.297 386.295C443.742 386.943 442.332 387.894 441.147 389.093C439.963 390.291 439.028 391.713 438.398 393.275C437.768 394.838 437.454 396.51 437.475 398.194L437.595 408.314L438.825 516.654L438.845 518.744L438.885 522.194L438.925 525.564L439.155 545.874C439.193 549.179 440.514 552.34 442.839 554.69C445.164 557.039 448.311 558.392 451.615 558.464C451.955 558.464 452.305 558.454 452.655 558.434L485.515 556.434L533.055 553.534L549.835 552.514L553.575 552.284L579.725 550.694H579.735L589.355 550.104C592.591 549.904 595.629 548.478 597.851 546.117C600.073 543.755 601.312 540.637 601.315 537.394V398.044C601.312 394.669 599.969 391.434 597.583 389.047C595.196 386.66 591.961 385.318 588.585 385.314Z" fill="black"/>
<path id="Vector_13" d="M617.082 367.619C616.581 367.659 616.096 367.81 615.66 368.059C615.225 368.309 614.85 368.652 614.563 369.064L599.315 369.088V365.044C599.312 361.669 597.97 358.433 595.583 356.047C593.196 353.66 589.961 352.318 586.585 352.314H448.205C446.521 352.313 444.852 352.646 443.297 353.295C441.742 353.943 440.332 354.894 439.147 356.093C437.963 357.291 437.028 358.713 436.398 360.275C435.768 361.838 435.454 363.51 435.475 365.194L435.525 369.352L425.691 369.367C425.153 368.793 424.412 368.451 423.626 368.411C420.18 368.416 417.398 375.943 417.413 385.222C417.428 394.501 420.234 402.019 423.68 402.014C424.281 401.948 424.857 401.739 425.359 401.404C425.862 401.069 426.277 400.618 426.569 400.089L614.612 399.786C614.901 400.197 615.277 400.539 615.713 400.787C616.149 401.035 616.635 401.184 617.136 401.222C620.582 401.217 623.364 393.69 623.349 384.411C623.334 375.132 620.528 367.614 617.082 367.619Z" fill="#1F3643" fill-opacity="0.5"/>
<path id="Vector_14" d="M601.591 580.058C600.675 580.915 599.573 581.549 598.371 581.909C597.17 582.269 595.901 582.347 594.664 582.136C593.428 581.924 592.257 581.43 591.243 580.691C590.229 579.952 589.4 578.988 588.821 577.876L581.298 563.431L584.291 556.946L600.419 567.268C601.462 567.936 602.34 568.833 602.984 569.892C603.627 570.951 604.021 572.142 604.134 573.376C604.247 574.61 604.077 575.854 603.636 577.012C603.195 578.17 602.496 579.212 601.591 580.058Z" fill="#FFC9A9"/>
<path id="Vector_15" d="M634.089 664.335C633.91 662.666 633.115 661.124 631.859 660.01C630.602 658.897 628.976 658.293 627.298 658.316C625.769 658.306 624.281 658.81 623.073 659.746C621.865 660.683 621.006 661.999 620.635 663.482L613.973 695.836C613.752 696.782 613.638 697.749 613.632 698.72C613.632 706.016 619.738 711.086 627.298 711.086C634.857 711.086 640.967 706.016 640.967 698.72C640.963 697.551 640.804 696.388 640.495 695.261L634.089 664.335Z" fill="#3F3D56"/>
<path id="Vector_16" d="M684.486 678.806C683.809 678.212 683.08 677.679 682.308 677.213L656.855 659.426C654.377 657.87 651.73 657.914 649.808 659.792C648.969 660.59 648.436 661.657 648.303 662.807C648.169 663.958 648.442 665.119 649.076 666.088L668.295 691.348C668.734 691.96 669.224 692.534 669.759 693.064C673.09 696.787 680.478 696.992 684.538 693.064C688.543 689.071 688.495 681.954 684.486 678.806Z" fill="#3F3D56"/>
<path id="Vector_17" d="M703.614 652.455H677.835C677.009 652.424 676.203 652.72 675.594 653.28C674.986 653.839 674.622 654.617 674.584 655.443C674.571 656.204 674.813 656.948 675.272 657.556C675.731 658.164 676.381 658.601 677.117 658.796L701.436 666.319C704.968 667.143 709.727 663.994 709.727 660.063C709.727 655.062 706.945 652.455 703.614 652.455Z" fill="#3F3D56"/>
<path id="Vector_18" d="M580.949 655.428C580.922 655.003 580.81 654.588 580.621 654.207C580.432 653.826 580.168 653.486 579.846 653.208C579.524 652.93 579.15 652.719 578.745 652.587C578.34 652.455 577.913 652.406 577.489 652.441H551.71C548.463 652.441 545.725 655.948 545.725 659.88C545.725 663.811 550.344 667.142 553.888 666.319L578.573 658.796C579.313 658.624 579.964 658.186 580.402 657.565C580.84 656.944 581.035 656.183 580.949 655.428Z" fill="#3F3D56"/>
<path id="Vector_19" d="M598.641 659.455L573.18 677.166C572.39 677.611 571.653 678.145 570.984 678.758C569.112 680.499 568.008 682.912 567.916 685.467C567.823 688.022 568.749 690.509 570.49 692.381C570.649 692.551 570.813 692.715 570.984 692.874C572.981 694.76 575.624 695.811 578.371 695.811C581.119 695.811 583.762 694.76 585.759 692.874C586.303 692.353 586.794 691.78 587.223 691.161L606.457 666.044C607.101 665.087 607.381 663.932 607.247 662.786C607.113 661.64 606.573 660.581 605.725 659.799C604.775 658.913 603.543 658.393 602.246 658.33C600.949 658.267 599.672 658.666 598.641 659.455Z" fill="#3F3D56"/>
<path id="Vector_20" d="M638.245 624.843C638.54 624.408 638.704 623.898 638.717 623.372C638.717 620.272 632.607 618.117 625.048 618.117C617.488 618.117 611.382 620.272 611.382 623.372C611.393 623.803 611.51 624.224 611.723 624.599L618.385 638.349C619.149 639.646 621.901 640.553 625.048 640.544C628.595 640.544 631.542 639.422 631.839 637.986L638.245 624.843Z" fill="#3F3D56"/>
<path id="Vector_21" d="M682.288 625.776C678.228 624.107 670.841 624.194 667.509 625.776C667.005 625.986 666.516 626.23 666.045 626.506L646.826 637.241C645.519 638.091 645.827 639.217 647.558 639.917C649.833 640.705 652.298 640.759 654.605 640.072L680.058 632.513C680.796 632.325 681.523 632.1 682.237 631.836C686.245 630.498 686.293 627.474 682.288 625.776Z" fill="#3F3D56"/>
<path id="Vector_22" d="M707.478 639.802C707.478 638.131 702.719 636.793 699.186 637.143L674.867 640.34C673.414 640.544 672.334 641.017 672.334 641.765C672.334 642.513 673.919 643.034 675.585 643.034H701.364C704.695 643.034 707.478 641.927 707.478 639.802Z" fill="#3F3D56"/>
<path id="Vector_23" d="M576.323 640.34L551.638 637.143C548.095 636.793 543.475 638.208 543.475 639.879C543.475 641.55 546.213 643.041 549.46 643.041H575.239C577.033 643.041 578.699 642.549 578.699 641.771C578.699 640.993 577.93 640.544 576.323 640.34Z" fill="#3F3D56"/>
<path id="Vector_24" d="M603.475 639.914C605.276 639.203 605.488 638.127 604.207 637.259L584.973 626.585C584.506 626.303 584.016 626.06 583.509 625.857C578.725 624.193 573.519 624.193 568.734 625.857C568.564 625.924 568.399 625.994 568.241 626.067C564.615 627.723 564.836 630.315 568.734 631.856C569.45 632.131 570.184 632.357 570.931 632.533L596.391 640.06C598.71 640.749 601.186 640.698 603.475 639.914Z" fill="#3F3D56"/>
<path id="Vector_25" d="M601.315 530.284V537.394C601.312 540.637 600.073 543.755 597.851 546.116C595.629 548.478 592.591 549.904 589.355 550.104L452.655 558.434C450.934 558.54 449.209 558.294 447.586 557.713C445.962 557.131 444.474 556.225 443.211 555.05C441.948 553.876 440.938 552.456 440.241 550.879C439.543 549.302 439.174 547.599 439.155 545.874L438.825 516.654L521.515 515.314L601.315 530.284Z" fill="#3F3D56"/>
<path id="Vector_26" d="M579.024 565.502L517.353 533.472C517.068 533.324 516.819 533.117 516.62 532.865C516.422 532.614 516.279 532.323 516.202 532.012L502.824 478.094C502.048 474.965 502.467 471.66 503.999 468.824C505.532 465.988 508.067 463.826 511.11 462.762L514.333 461.634C515.051 461.382 515.814 461.281 516.573 461.336C517.332 461.391 518.072 461.601 518.747 461.954C519.421 462.307 520.016 462.794 520.495 463.386C520.974 463.978 521.326 464.661 521.529 465.395L534.715 512.864C534.839 513.308 535.095 513.704 535.45 513.998L585.698 555.632C586.131 555.991 586.415 556.499 586.493 557.057C586.572 557.614 586.439 558.181 586.121 558.646L581.928 564.774C581.616 565.229 581.149 565.554 580.614 565.689C580.079 565.823 579.513 565.757 579.024 565.502Z" fill="#FBCA5A"/>
<path id="Vector_27" d="M538.397 481.62C508.486 465.873 477.176 457.965 443.616 462.664C453.732 445.52 461.246 429.669 460.743 417.802C460.527 413.989 461.25 410.181 462.847 406.712C464.445 403.243 466.869 400.219 469.907 397.904C474.795 394.28 480.72 392.324 486.806 392.327C492.24 389.904 498.396 389.659 504.006 391.643C506.386 392.54 508.551 393.928 510.359 395.718C512.167 397.508 513.576 399.66 514.496 402.031C515.643 404.811 518.113 407.246 521.696 409.391C525.015 411.311 527.719 414.136 529.492 417.536C531.852 422.233 532.015 426.961 528.922 431.736C540.504 443.903 540.536 462.187 538.397 481.62Z" fill="#2F2E41"/>
<path id="Vector_28" d="M495.995 442.212C507.566 442.212 516.947 432.831 516.947 421.26C516.947 409.689 507.566 400.309 495.995 400.309C484.424 400.309 475.044 409.689 475.044 421.26C475.044 432.831 484.424 442.212 495.995 442.212Z" fill="#FFC9A9"/>
<path id="Vector_29" d="M505.972 466.655L481.529 469.149C482.84 454.858 483.356 441.67 481.529 431.736H505.972C501.33 447.552 501.737 458.825 505.972 466.655Z" fill="#FFC9A9"/>
<path id="Vector_30" d="M519.065 466.114C519.045 468.304 518.999 470.471 518.925 472.614C518.415 487.954 516.485 501.764 511.225 511.934C510.157 514.04 508.881 516.033 507.415 517.884C507.405 517.903 507.392 517.92 507.375 517.934C507.275 518.075 507.164 518.209 507.045 518.334C505.97 519.67 504.775 520.905 503.475 522.024L493.465 532.524L493.005 533.004L490.085 534.954L475.045 544.974L438.925 525.564L438.885 522.194L438.845 518.744C446.875 507.364 451.885 492.564 455.065 475.714C455.935 471.104 456.675 466.334 457.305 461.434C457.735 458.044 458.115 454.584 458.445 451.074C458.497 449.997 458.861 448.957 459.495 448.084C459.495 448.083 459.496 448.082 459.496 448.081C459.497 448.079 459.497 448.078 459.498 448.077C459.499 448.076 459.5 448.076 459.502 448.075C459.503 448.075 459.504 448.074 459.505 448.074C461.045 446.114 464.105 446.154 467.805 445.954C472.995 445.674 478.105 442.984 482.695 445.524C482.809 445.577 482.92 445.637 483.025 445.704L496.495 460.664L502.685 453.994L502.975 453.684L515.725 459.144C517.029 459.708 518.086 460.724 518.7 462.005C519.313 463.285 519.443 464.745 519.065 466.114Z" fill="#FBCA5A"/>
<path id="Vector_31" d="M490.635 539.644C490.636 542.195 490.154 544.723 489.215 547.094L485.515 556.434L452.655 558.434C452.305 558.454 451.955 558.464 451.615 558.464C448.311 558.392 445.164 557.039 442.839 554.689C440.514 552.34 439.193 549.179 439.155 545.874L438.925 525.564L438.885 522.194L450.845 527.264L462.505 521.004C463.141 520.733 463.792 520.499 464.455 520.304C465.319 520.031 466.201 519.82 467.095 519.674H467.105C467.535 519.604 467.965 519.544 468.395 519.504C473.338 519.009 478.29 520.351 482.305 523.274C484.653 524.974 486.601 527.165 488.015 529.694C488.124 529.868 488.22 530.048 488.305 530.234C489.1 531.724 489.699 533.311 490.085 534.954C490.449 536.491 490.634 538.065 490.635 539.644Z" fill="#2F2E41"/>
<path id="Vector_32" opacity="0.2" d="M481.279 479.874L485.65 499.929L512.207 522.775L488.762 498.831L481.279 479.874Z" fill="black"/>
<path id="Vector_33" opacity="0.2" d="M456.836 489.352L464.817 521.777L488.263 530.258L466.314 519.283L456.836 489.352Z" fill="black"/>
<path id="Vector_34" d="M521.187 422.507C505.745 415.403 488.287 413.377 472.799 421.011L474.794 403.052L508.716 397.565L521.187 422.507Z" fill="#2F2E41"/>
<path id="Vector_35" d="M550.709 565.093C549.792 565.95 548.691 566.583 547.489 566.944C546.287 567.304 545.019 567.382 543.782 567.17C542.545 566.959 541.375 566.464 540.361 565.725C539.347 564.986 538.518 564.023 537.939 562.91L530.415 548.466L533.408 541.981L549.537 552.303C550.58 552.971 551.457 553.868 552.101 554.927C552.745 555.985 553.139 557.177 553.252 558.411C553.365 559.645 553.194 560.888 552.754 562.046C552.313 563.204 551.613 564.246 550.709 565.093Z" fill="#FFC9A9"/>
<path id="Vector_36" d="M528.142 550.537L466.471 518.506C466.186 518.359 465.936 518.152 465.738 517.9C465.54 517.648 465.397 517.357 465.32 517.046L451.942 463.129C451.166 460 451.585 456.694 453.117 453.859C454.65 451.023 457.185 448.861 460.228 447.796L463.451 446.668C464.169 446.417 464.932 446.315 465.691 446.371C466.45 446.426 467.19 446.636 467.864 446.989C468.539 447.341 469.134 447.829 469.613 448.42C470.091 449.012 470.444 449.696 470.647 450.429L483.833 497.899C483.957 498.343 484.213 498.739 484.568 499.033L534.816 540.667C535.249 541.026 535.533 541.534 535.611 542.092C535.689 542.649 535.557 543.216 535.239 543.68L531.046 549.808C530.734 550.264 530.267 550.589 529.732 550.723C529.197 550.858 528.631 550.791 528.142 550.537Z" fill="#FBCA5A"/>
</g>
<g id="fire">
<path id="Fire" d="M675.209 640.495C675.209 680.258 653.048 680.993 625.711 680.993C598.375 680.993 553.493 673.127 576.214 640.495C600.177 606.078 641.288 540.474 625.711 537C625.711 537 675.209 600.733 675.209 640.495Z" fill="#F9A825"/>
<path id="Fire_2" opacity="0.5" d="M645.414 647.084C645.414 662.824 636.642 663.115 625.821 663.115C615 663.115 597.234 660.001 606.228 647.084C615.714 633.461 631.987 607.493 625.821 606.118C625.821 606.118 645.414 631.345 645.414 647.084Z" fill="#FF6584"/>
</g>
<g id="marshmallow">
<path id="Vector_37" d="M645.315 580.314L531.768 560.808L533.16 553.948L645.315 580.314Z" fill="#3F3D56"/>
<path id="Vector_38" d="M633.076 583.865C633.621 583.972 634.186 583.859 634.648 583.551C635.11 583.242 635.432 582.764 635.543 582.22L636.681 576.525C636.79 575.98 636.678 575.414 636.369 574.951C636.061 574.489 635.581 574.168 635.036 574.059L618.555 570.764C618.009 570.656 617.444 570.769 616.982 571.077C616.519 571.386 616.198 571.864 616.088 572.409L614.95 578.104C614.896 578.373 614.896 578.651 614.949 578.921C615.003 579.192 615.109 579.448 615.262 579.678C615.414 579.907 615.611 580.103 615.839 580.256C616.068 580.41 616.325 580.516 616.595 580.57L633.076 583.865Z" fill="#E6E6E6"/>
</g>
</g>
</svg>
