<?xml version="1.0" encoding="UTF-8"?><svg xmlns="http://www.w3.org/2000/svg" viewBox="0 0 147.17 137.1"><defs><style>.d{fill:#fdd26d;}</style></defs><g id="a"/><g id="b"><g id="c"><path class="d" d="M.07,116.14c-.55-12.9,2.29-25.65,5.27-38.36,2.51-10.73,6.15-21.08,11.37-30.82C26.21,29.24,39.27,15.06,57.62,6.23,82.61-5.81,111.03,.09,128.54,19.7c6.3,7.05,10.53,15.28,13.18,24.33,4.5,15.35,6.31,31,5.06,46.95-.89,11.32-1.98,22.63-2.99,33.95-.24,2.65-.42,5.3-.82,7.93-.41,2.68-1.94,3.94-4.66,4.14-6.58,.48-13.02-.68-19.49-1.58-2.8-.39-4.13-2.4-4.63-4.94-.44-2.25-.7-4.55-.82-6.84-.77-13.89-1.29-27.8-2.27-41.67-.72-10.13-2.07-20.21-6.71-29.48-2.06-4.12-4.29-8.15-7.74-11.31-7.74-7.09-16.52-7.87-25.99-4.21-7.15,2.77-12.66,7.65-16.42,14.2-7.18,12.51-12.79,25.76-16.1,39.82-2.49,10.57-4.23,21.3-6.37,31.95-.43,2.12-.86,4.31-1.78,6.24-.61,1.29-1.9,2.69-3.2,3.14-6.47,2.26-13.24,2.73-20.03,2.4-3.21-.16-5.4-1.99-6.11-5.25-.3-1.41-.52-2.86-.56-4.3-.09-2.9-.03-5.81-.03-9.02Z"/></g></g></svg>