<?xml version="1.0" encoding="UTF-8"?><svg xmlns="http://www.w3.org/2000/svg" viewBox="0 0 49.64 64.97"><defs><style>.d{fill:#bacd77;}</style></defs><g id="a"/><g id="b"><g id="c"><path class="d" d="M0,39.66C.09,28.66,1.62,18.66,9.27,10.86,18.32,1.66,29.37-1.79,42.06,.88c6.59,1.39,9.69,9.36,5.99,15.36-1.3,2.11-3.27,3.86-5.15,5.53-2.26,2-4.77,3.71-7.14,5.58-5.64,4.45-8.53,10.32-9.14,17.45-.28,3.24-.82,6.47-1.42,9.68-.31,1.64-.86,3.29-1.58,4.8-2.79,5.91-9.4,7.47-14.59,3.48-2.65-2.03-4.6-4.65-5.68-7.81-.86-2.51-1.72-5.04-2.27-7.63-.58-2.71-.79-5.49-1.08-7.65Z"/></g></g></svg>