<?xml version="1.0" encoding="UTF-8"?><svg xmlns="http://www.w3.org/2000/svg" viewBox="0 0 65.04 57.71"><defs><style>.d{fill:#fda482;}</style></defs><g id="a"/><g id="b"><g id="c"><path class="d" d="M37.86,57.71c-.91-1.07-1.99-1.89-2.49-2.98-1.56-3.41-3.05-6.86-4.28-10.39-1.48-4.26-4.45-6.56-8.73-7.17-3.22-.46-6.49-.57-9.75-.78-2.9-.19-5.8-.32-8.69-.49-.6-.03-1.38,.1-1.77-.22-.87-.7-1.96-1.56-2.15-2.51-.13-.66,.95-2.04,1.76-2.31,2.4-.79,4.91-1.28,7.4-1.72,4.44-.77,8.73-1.85,12.49-4.53,2.17-1.55,3.78-3.48,4.28-6.07,.63-3.31,1.02-6.67,1.44-10.02,.24-1.92,.29-3.86,.55-5.77,.19-1.41,.91-2.53,2.48-2.73,1.6-.2,2.49,.77,2.96,2.13,.71,2.05,1.32,4.14,1.96,6.22,.78,2.54,1.58,5.08,2.28,7.64,.9,3.27,3.11,5.02,6.27,5.88,5.25,1.44,10.53,1.23,15.84,.43,1.07-.16,2.2-.51,3.21-.33,.8,.15,2,.92,2.08,1.54,.12,.86-.44,2.02-1.07,2.71-.61,.66-1.69,.87-2.57,1.28-3.28,1.54-6.56,3.08-9.83,4.64-4.77,2.27-7.25,6.16-8.16,11.26-.6,3.33-1.35,6.63-2.11,9.93-.21,.93-.52,1.9-1.06,2.66-.45,.63-1.3,.96-2.35,1.68Z"/></g></g></svg>